<?xml version="1.0" encoding="UTF-8" standalone="no"?>
<!-- Created with Inkscape (http://www.inkscape.org/) -->

<svg
   xmlns:dc="http://purl.org/dc/elements/1.1/"
   xmlns:cc="http://creativecommons.org/ns#"
   xmlns:rdf="http://www.w3.org/1999/02/22-rdf-syntax-ns#"
   xmlns:svg="http://www.w3.org/2000/svg"
   xmlns="http://www.w3.org/2000/svg"
   xmlns:sodipodi="http://sodipodi.sourceforge.net/DTD/sodipodi-0.dtd"
   xmlns:inkscape="http://www.inkscape.org/namespaces/inkscape"
   width="210mm"
   height="297mm"
   viewBox="0 0 210 297"
   version="1.1"
   id="svg8"
   inkscape:version="0.92.4 5da689c313, 2019-01-14"
   sodipodi:docname="fix3p-icon.svg"
   inkscape:export-filename="/home/talen/Projects/fix3p/src/assets/img/favicon.png"
   inkscape:export-xdpi="15.67"
   inkscape:export-ydpi="15.67">
  <defs
     id="defs2" />
  <sodipodi:namedview
     id="base"
     pagecolor="#ffffff"
     bordercolor="#666666"
     borderopacity="1.0"
     inkscape:pageopacity="0.0"
     inkscape:pageshadow="2"
     inkscape:zoom="0.64003968"
     inkscape:cx="167.52564"
     inkscape:cy="480.52488"
     inkscape:document-units="mm"
     inkscape:current-layer="layer1"
     showgrid="false"
     inkscape:window-width="960"
     inkscape:window-height="1139"
     inkscape:window-x="2880"
     inkscape:window-y="25"
     inkscape:window-maximized="0" />
  <metadata
     id="metadata5">
    <rdf:RDF>
      <cc:Work
         rdf:about="">
        <dc:format>image/svg+xml</dc:format>
        <dc:type
           rdf:resource="http://purl.org/dc/dcmitype/StillImage" />
        <dc:title></dc:title>
      </cc:Work>
    </rdf:RDF>
  </metadata>
  <g
     inkscape:label="Layer 1"
     inkscape:groupmode="layer"
     id="layer1">
    <path
       style="fill:#1f376c;fill-opacity:1;stroke-width:0.36964086"
       d="m 183.07396,251.9618 24.5818,-10.282 -26.34528,-24.18127 c -13.78769,-12.65517 -25.21947,-24.44598 -25.80345,-25.09619 -0.58398,-0.6502 -6.41009,-6.37429 -12.9469,-12.72021 -6.53682,-6.34592 -12.21023,-11.96392 -12.60759,-12.48446 l -0.72248,-0.94644 3.08362,-2.78482 c 3.68107,-3.32441 8.97587,-9.20662 11.6667,-12.96101 10.4711,-14.60989 11.28723,-21.2975 8.00249,-37.94765 -1.76036,-8.92319 -7.19977,-13.753002 -14.3648,-20.399208 -4.56658,-4.235909 -12.56659,-7.162872 -13.92004,-7.515757 -14.02304,-3.656214 -16.95454,-3.480099 -31.55089,-2.993174 -18.456345,0.615691 -34.21922,3.349941 -47.587057,5.024912 0,0 -11.432698,1.286948 -19.013003,0.908227 L 3.8613737,86.499305 c 0,1.589251 0.9100025,5.952192 26.9616453,41.801265 14.975892,20.608 27.403803,37.7798 27.617565,38.15957 0.324086,0.57577 -4.199666,7.79409 -27.228907,43.44782 l -31.09207666,44.7264 20.86808666,3.58168 c 0,0 20.200457,4.25789 28.608367,5.34989 18.447508,2.39591 19.433726,2.52739 32.975506,3.86295 15.376804,1.51655 39.65037,2.13802 50.43755,0.19601 17.14961,-3.08743 29.94281,-7.79644 29.94281,-7.79644 m -54.3339,4.37267 c -8.60181,0.005 -3.99873,0.18283 -17.251606,-0.97628 -7.456601,-0.65217 -15.757758,-1.11349 -23.610468,-2.28965 -8.490297,-1.27165 -13.342723,-1.38323 -24.568389,-4.40629 -2.469987,-0.66516 -12.518998,-2.79978 -12.518998,-2.79978 0.519455,-0.6721 5.079776,-7.34415 8.074677,-12.02288 l 7.499564,-11.71606 13.390891,2.69265 c 0,0 14.878425,1.85145 20.292304,1.47226 16.518015,-1.15694 26.490415,-4.21632 33.838925,-10.38124 3.55888,-2.98567 5.67583,-6.03834 6.93931,-10.00657 1.05871,-3.32513 0.93284,-9.78182 -0.26741,-13.71745 -3.93946,-12.91738 -15.91956,-25.81497 -28.888853,-31.10129 l -3.371783,-1.37435 3.471598,-1.8354 c 4.914093,-2.59802 7.997281,-4.74646 12.313078,-8.58001 5.29928,-4.70714 8.30974,-9.116 10.56512,-15.47271 1.17753,-3.31884 1.11947,-10.32856 -0.11787,-14.22833 -2.65119,-8.35593 -9.241,-15.03126 -18.772656,-19.01627 -5.699006,-2.38265 -9.719973,-3.2128 -16.716477,-3.45118 -7.917714,-0.26978 -14.749433,0.85671 -23.02914,3.79729 -1.81513,0.64466 -3.322733,1.13633 -3.350313,1.09263 -0.02755,-0.0437 -1.328619,-1.75854 -2.891262,-3.81074 -3.646332,-4.78865 -9.936463,-13.743821 -9.746313,-13.875685 0.08039,-0.05575 22.370105,-2.551224 24.71916,-2.462606 0,0 16.14022,-1.945013 30.247298,-2.661189 13.006343,-0.660295 20.310693,0.399192 28.376413,3.75328 5.55125,2.308457 14.57494,8.88843 17.59685,12.70485 3.93445,4.96891 6.64617,10.41487 7.75889,15.58226 0.66173,3.07301 0.56212,9.85862 -0.19323,13.16348 -1.3536,5.92239 -4.69984,12.5794 -9.28625,18.47407 -3.57554,4.59545 -6.37368,7.50562 -11.61171,12.0766 l -4.39919,3.83896 1.84583,1.58832 c 2.0435,1.75843 17.12644,16.56753 40.82942,40.08818 8.55443,8.48862 20.83137,20.6616 27.28208,27.05106 l 4.54358,3.74177 -17.92062,8.44725 c 0,0 -24.11734,9.41298 -35.18406,11.66744 -10.27119,2.0924 -11.88443,4.18394 -29.76639,4.75731 z"
       id="path4596"
       inkscape:connector-curvature="0"
       sodipodi:nodetypes="ccscsccccsssscscscsccsssccssscscsssccsccsccscccccsssccsssccscccssc" />
    <path
       style="fill:#22a8e0;fill-opacity:1;stroke:#ff9955;stroke-width:0;stroke-miterlimit:4;stroke-dasharray:none;stroke-opacity:1"
       d="m 188.16697,157.07291 18.66802,16.46899 -67.90065,70.32301 -31.55648,11.65511 12.88845,-28.12411 z"
       id="rect4617"
       inkscape:connector-curvature="0"
       sodipodi:nodetypes="cccccc" />
  </g>
</svg>
