<?xml version="1.0" encoding="utf-8"?>
<!-- Generator: Adobe Illustrator 16.0.0, SVG Export Plug-In . SVG Version: 6.00 Build 0)  -->
<!DOCTYPE svg PUBLIC "-//W3C//DTD SVG 1.1//EN" "http://www.w3.org/Graphics/SVG/1.1/DTD/svg11.dtd">
<svg version="1.1" id="Layer_1" xmlns="http://www.w3.org/2000/svg" xmlns:xlink="http://www.w3.org/1999/xlink" x="0px" y="0px"
	 width="740.837px" height="418.848px" viewBox="0 0 740.837 418.848" enable-background="new 0 0 740.837 418.848"
	 xml:space="preserve">
<g>
	<path fill="#808285" d="M290.386,252.663c-0.118-0.819-0.502-4.099-4.604-4.099c-5.135,0-6.05,5.837-6.05,9.771
		c0,4.46,1.151,9.28,6.02,9.28c1.298,0,2.538-0.36,3.453-1.41c0.768-0.918,0.944-1.935,1.033-2.492h3.246
		c-0.443,4.656-4.309,6.591-7.968,6.591c-7.496,0-8.942-7.345-8.942-11.936c0-4.984,1.741-12.428,9.325-12.428
		c3.01,0,7.26,1.345,7.644,6.722H290.386z"/>
	<path fill="#808285" d="M297.703,262.271c-0.059,3.41,1.21,5.935,4.25,5.935c1.8,0,3.247-1.049,3.482-3.41h2.774
		c-0.088,0.82-0.207,2.164-1.269,3.443c-0.649,0.819-2.125,2.197-5.105,2.197c-4.663,0-6.876-3.214-6.876-8.428
		c0-3.246,0.59-5.936,2.921-7.738c1.417-1.115,3.187-1.214,4.043-1.214c6.64,0,6.492,6.525,6.433,9.215H297.703z M305.523,260.107
		c0.03-1.574-0.236-4.854-3.659-4.854c-1.8,0-3.984,1.213-4.043,4.854H305.523z"/>
	<path fill="#808285" d="M310.717,255.385l-0.03-1.901h2.774l0.029,2.656c0.325-0.689,1.387-2.984,4.751-2.984
		c1.328,0,5.371,0.558,5.371,5.607v11.182h-2.833v-10.46c0-1.082-0.118-2.066-0.797-2.82c-0.708-0.754-1.682-1.115-2.626-1.115
		c-2.006,0-3.866,1.607-3.866,4.919v9.477h-2.774V255.385z"/>
	<path fill="#808285" d="M325.177,253.418h2.626v-3.443l2.744-0.983v4.427h3.305v2.263h-3.305v9.87c0,0.819,0,2.196,1.978,2.196
		c0.561,0,1.092-0.098,1.328-0.164v2.395c-0.501,0.098-1.298,0.196-2.302,0.196c-2.538,0-3.748-0.819-3.748-3.509v-10.984h-2.626
		V253.418z"/>
	<path fill="#808285" d="M337.748,262.271c-0.059,3.41,1.21,5.935,4.25,5.935c1.8,0,3.247-1.049,3.482-3.41h2.774
		c-0.088,0.82-0.207,2.164-1.269,3.443c-0.649,0.819-2.125,2.197-5.105,2.197c-4.663,0-6.876-3.214-6.876-8.428
		c0-3.246,0.59-5.936,2.921-7.738c1.417-1.115,3.187-1.214,4.043-1.214c6.64,0,6.492,6.525,6.433,9.215H337.748z M345.568,260.107
		c0.03-1.574-0.236-4.854-3.659-4.854c-1.8,0-3.984,1.213-4.043,4.854H345.568z"/>
	<path fill="#808285" d="M351.411,256.828c0-1.115-0.059-2.263-0.148-3.345h2.804l0.059,3.181c0.531-2.296,2.302-3.05,3.542-3.246
		c0.826-0.132,1.445-0.099,1.918-0.066v3.018c-0.147-0.066-0.324-0.099-0.531-0.132c-0.207-0.032-0.473-0.032-0.797-0.032
		c-3.275,0-4.043,2.164-4.043,4.984v8.755h-2.803V256.828z"/>
	<path fill="#808285" d="M377.114,248.564c-0.472-0.033-1.062-0.065-1.623-0.065c-2.242,0-2.242,1.246-2.242,2.394v2.591h3.452
		v2.229h-3.452v14.231h-2.745v-14.231h-2.921v-2.229h2.921v-1.869c0-2.263,0.118-3.083,0.62-3.936
		c0.619-1.049,1.799-1.803,3.717-1.803c0.797,0,1.683,0.131,2.272,0.229V248.564z"/>
	<path fill="#808285" d="M384.756,253.057c5.932,0,7.26,5.182,7.26,8.624c0,4.82-2.449,8.821-7.496,8.821
		c-4.898,0-7.289-3.771-7.289-8.592C377.231,257.845,378.943,253.057,384.756,253.057z M384.58,268.206
		c2.095,0,4.485-1.672,4.485-6.623c0-4.1-1.712-6.264-4.309-6.264c-1.771,0-4.633,1.246-4.633,6.395
		C380.124,265.091,381.421,268.206,384.58,268.206z"/>
	<path fill="#808285" d="M394.701,256.828c0-1.115-0.059-2.263-0.147-3.345h2.804l0.059,3.181c0.531-2.296,2.303-3.05,3.542-3.246
		c0.826-0.132,1.445-0.099,1.918-0.066v3.018c-0.147-0.066-0.324-0.099-0.531-0.132c-0.207-0.032-0.473-0.032-0.797-0.032
		c-3.275,0-4.043,2.164-4.043,4.984v8.755h-2.804V256.828z"/>
	<path fill="#808285" d="M415.122,263.025c0.059,1.64,0.236,4.689,5.135,4.689c4.427,0,4.987-3.05,4.987-4.23
		c0-2.656-1.918-3.181-4.898-4c-3.246-0.886-4.692-1.279-5.784-2.099c-1.741-1.312-2.214-3.083-2.214-4.657
		c0-4.82,4.103-6.918,8.116-6.918c1.416,0,4.278,0.262,5.99,2.328c1.181,1.442,1.239,3.049,1.299,4.033h-3.069
		c-0.147-2.951-2.391-3.607-4.485-3.607c-2.951,0-4.722,1.476-4.722,3.837c0,2.099,1.239,2.819,3.836,3.509
		c5.076,1.442,5.637,1.573,6.876,2.492c1.978,1.442,2.125,3.737,2.125,4.722c0,4.197-2.951,7.378-8.411,7.378
		c-1.623,0-4.928-0.295-6.61-2.689c-1.21-1.737-1.239-3.64-1.239-4.787H415.122z"/>
	<path fill="#808285" d="M429.198,253.418h2.627v-3.443l2.744-0.983v4.427h3.306v2.263h-3.306v9.87c0,0.819,0,2.196,1.978,2.196
		c0.561,0,1.092-0.098,1.328-0.164v2.395c-0.502,0.098-1.299,0.196-2.302,0.196c-2.538,0-3.748-0.819-3.748-3.509v-10.984h-2.627
		V253.418z"/>
	<path fill="#808285" d="M449.117,269.944c-0.206-0.819-0.266-1.606-0.266-2.459c-1.328,2.722-3.335,2.983-4.574,2.983
		c-3.394,0-5.223-2.131-5.223-4.853c0-1.312,0.413-3.41,2.597-4.82c1.594-0.984,3.954-1.082,5.135-1.082
		c0.708,0,1.15,0.032,2.007,0.098c0-2.032,0-2.918-0.531-3.64c-0.561-0.819-1.771-1.082-2.567-1.082
		c-2.804,0-2.951,2.132-2.98,2.787h-2.774c0.089-0.853,0.177-2,1.033-3.115c1.121-1.377,3.217-1.771,4.78-1.771
		c2.154,0,4.456,0.754,5.253,2.427c0.473,0.983,0.502,1.771,0.502,2.524l-0.118,7.87c0,0.263,0.029,2.46,0.236,4.132H449.117z
		 M447.199,261.845c-1.121,0-5.342,0-5.342,3.345c0,1.05,0.591,2.853,3.069,2.853c1.417,0,2.479-0.623,3.158-1.771
		c0.619-1.114,0.648-2.033,0.708-4.328C448.291,261.878,447.877,261.845,447.199,261.845z"/>
	<path fill="#808285" d="M453.011,253.418h2.627v-3.443l2.744-0.983v4.427h3.306v2.263h-3.306v9.87c0,0.819,0,2.196,1.978,2.196
		c0.561,0,1.092-0.098,1.328-0.164v2.395c-0.502,0.098-1.299,0.196-2.302,0.196c-2.538,0-3.748-0.819-3.748-3.509v-10.984h-2.627
		V253.418z"/>
	<path fill="#808285" d="M464.224,246.335h3.335v3.377h-3.335V246.335z M464.519,253.483h2.774v16.461h-2.774V253.483z"/>
	<path fill="#808285" d="M473.078,265.059c-0.029,1.246,0.561,2.983,3.246,2.983c1.151,0,2.007-0.229,2.597-1.049
		c0.296-0.427,0.473-0.983,0.473-1.541c0-1.607-1.033-1.902-3.246-2.46c-3.099-0.786-5.695-1.476-5.695-4.918
		c0-3.017,2.36-4.984,5.783-4.984c1.859,0,4.457,0.59,5.342,2.558c0.384,0.918,0.384,1.705,0.384,2.394h-2.833
		c0.089-2.492-1.859-2.688-2.862-2.688c-0.413,0-3.011,0-3.011,2.36c0,1.509,1.328,1.869,2.096,2.099
		c4.102,1.082,4.987,1.345,5.872,2.263c0.827,0.853,1.122,2.001,1.122,3.05c0,1.836-0.915,3.41-2.007,4.164
		c-1.299,0.886-2.862,1.115-4.397,1.115c-3.01,0-5.813-1.377-5.784-5.345H473.078z"/>
	<path fill="#808285" d="M483.347,253.418h2.627v-3.443l2.744-0.983v4.427h3.306v2.263h-3.306v9.87c0,0.819,0,2.196,1.978,2.196
		c0.561,0,1.092-0.098,1.328-0.164v2.395c-0.502,0.098-1.299,0.196-2.302,0.196c-2.538,0-3.748-0.819-3.748-3.509v-10.984h-2.627
		V253.418z"/>
	<path fill="#808285" d="M494.56,246.335h3.335v3.377h-3.335V246.335z M494.855,253.483h2.774v16.461h-2.774V253.483z"/>
	<path fill="#808285" d="M510.26,258.763c-0.06-0.754-0.266-3.443-2.951-3.443c-3.836,0-3.836,4.951-3.836,6.197
		c0,3.378,0.737,6.525,3.688,6.525c2.36,0,3.157-1.967,3.217-3.574h2.803c-0.177,3.214-2.331,5.903-5.99,5.903
		c-1.003,0-3.305-0.23-4.869-2.132c-0.886-1.147-1.771-2.886-1.771-6.296c0-6.854,3.777-8.887,6.729-8.887
		c0.974,0,3.187,0.229,4.544,2.033c1.093,1.41,1.181,2.755,1.24,3.673H510.26z"/>
	<path fill="#808285" d="M517.548,265.059c-0.029,1.246,0.561,2.983,3.246,2.983c1.151,0,2.007-0.229,2.597-1.049
		c0.296-0.427,0.473-0.983,0.473-1.541c0-1.607-1.033-1.902-3.246-2.46c-3.099-0.786-5.695-1.476-5.695-4.918
		c0-3.017,2.36-4.984,5.783-4.984c1.859,0,4.457,0.59,5.342,2.558c0.384,0.918,0.384,1.705,0.384,2.394h-2.833
		c0.089-2.492-1.859-2.688-2.862-2.688c-0.413,0-3.011,0-3.011,2.36c0,1.509,1.328,1.869,2.096,2.099
		c4.102,1.082,4.987,1.345,5.872,2.263c0.827,0.853,1.122,2.001,1.122,3.05c0,1.836-0.915,3.41-2.007,4.164
		c-1.299,0.886-2.862,1.115-4.397,1.115c-3.01,0-5.813-1.377-5.784-5.345H517.548z"/>
	<path fill="#808285" d="M546.705,269.944c-0.206-0.819-0.266-1.606-0.266-2.459c-1.328,2.722-3.335,2.983-4.574,2.983
		c-3.394,0-5.223-2.131-5.223-4.853c0-1.312,0.413-3.41,2.597-4.82c1.594-0.984,3.954-1.082,5.135-1.082
		c0.708,0,1.15,0.032,2.007,0.098c0-2.032,0-2.918-0.531-3.64c-0.561-0.819-1.771-1.082-2.567-1.082
		c-2.804,0-2.951,2.132-2.98,2.787h-2.774c0.089-0.853,0.177-2,1.033-3.115c1.121-1.377,3.217-1.771,4.78-1.771
		c2.154,0,4.456,0.754,5.253,2.427c0.473,0.983,0.502,1.771,0.502,2.524l-0.118,7.87c0,0.263,0.029,2.46,0.236,4.132H546.705z
		 M544.787,261.845c-1.121,0-5.342,0-5.342,3.345c0,1.05,0.591,2.853,3.069,2.853c1.417,0,2.479-0.623,3.158-1.771
		c0.619-1.114,0.648-2.033,0.708-4.328C545.878,261.878,545.465,261.845,544.787,261.845z"/>
	<path fill="#808285" d="M551.781,255.385l-0.029-1.901h2.773l0.029,2.656c0.325-0.689,1.388-2.984,4.752-2.984
		c1.328,0,5.37,0.558,5.37,5.607v11.182h-2.832v-10.46c0-1.082-0.118-2.066-0.797-2.82c-0.709-0.754-1.683-1.115-2.627-1.115
		c-2.007,0-3.866,1.607-3.866,4.919v9.477h-2.773V255.385z"/>
	<path fill="#808285" d="M578.191,246.302h2.774v21.02c0,0.36,0.059,1.771,0.118,2.623h-2.774l-0.059-2.623
		c-0.236,0.459-0.561,1.147-1.328,1.737c-1.21,0.919-2.656,1.214-3.659,1.214c-1.978,0-6.374-1.147-6.374-8.362
		c0-6.263,3.216-8.984,6.698-8.984c3.188,0,4.25,2.099,4.604,2.787V246.302z M577.159,256.894c-0.591-0.853-1.683-1.673-3.246-1.673
		c-4.073,0-4.073,5.477-4.073,6.592c0,2.918,0.679,6.296,4.073,6.296c4.367,0,4.367-5.346,4.367-6.624
		C578.28,259.091,577.778,257.779,577.159,256.894z"/>
	<path fill="#808285" d="M284.188,277.649h3.158l8.617,23.675h-3.216l-2.302-6.165h-9.886l-2.302,6.165h-3.04L284.188,277.649z
		 M281.503,292.503h8.057l-3.925-11.607L281.503,292.503z"/>
	<path fill="#808285" d="M297.556,287.552c0-0.722-0.029-1.114-0.088-2.688h2.803l0.059,2.722c1.387-2.591,3.836-2.984,5.046-2.984
		c3.187,0,6.227,2.427,6.227,8.525c0,6.133-3.216,8.821-6.758,8.821c-2.154,0-3.748-1.017-4.544-2.459v8.165h-2.745V287.552z
		 M304.373,299.685c0.708,0,2.184-0.164,3.128-1.606c1.062-1.607,1.21-3.968,1.21-5.148c0-2.951-0.797-6.033-4.073-6.033
		c-4.426,0-4.426,5.214-4.426,6.689C300.212,295.586,300.478,299.685,304.373,299.685z"/>
	<path fill="#808285" d="M313.786,287.552c0-0.722-0.029-1.114-0.088-2.688h2.803l0.059,2.722c1.387-2.591,3.836-2.984,5.046-2.984
		c3.187,0,6.227,2.427,6.227,8.525c0,6.133-3.216,8.821-6.758,8.821c-2.154,0-3.748-1.017-4.544-2.459v8.165h-2.745V287.552z
		 M320.603,299.685c0.708,0,2.184-0.164,3.128-1.606c1.062-1.607,1.21-3.968,1.21-5.148c0-2.951-0.797-6.033-4.073-6.033
		c-4.426,0-4.426,5.214-4.426,6.689C316.442,295.586,316.708,299.685,320.603,299.685z"/>
	<path fill="#808285" d="M330.164,277.682h2.774v23.643h-2.774V277.682z"/>
	<path fill="#808285" d="M336.833,277.715h3.334v3.377h-3.334V277.715z M337.128,284.863h2.774v16.461h-2.774V284.863z"/>
	<path fill="#808285" d="M352.532,290.143c-0.059-0.754-0.266-3.443-2.951-3.443c-3.836,0-3.836,4.951-3.836,6.197
		c0,3.378,0.738,6.525,3.689,6.525c2.361,0,3.157-1.967,3.216-3.574h2.803c-0.177,3.214-2.331,5.903-5.99,5.903
		c-1.003,0-3.305-0.23-4.869-2.132c-0.885-1.147-1.771-2.886-1.771-6.296c0-6.854,3.777-8.887,6.728-8.887
		c0.974,0,3.188,0.229,4.545,2.033c1.092,1.41,1.18,2.755,1.24,3.673H352.532z"/>
	<path fill="#808285" d="M367.257,301.324c-0.206-0.819-0.266-1.606-0.266-2.459c-1.328,2.722-3.334,2.983-4.574,2.983
		c-3.394,0-5.223-2.131-5.223-4.853c0-1.312,0.413-3.41,2.597-4.82c1.594-0.984,3.954-1.082,5.135-1.082
		c0.708,0,1.15,0.032,2.007,0.098c0-2.032,0-2.918-0.531-3.64c-0.561-0.819-1.771-1.082-2.567-1.082
		c-2.804,0-2.951,2.132-2.98,2.787h-2.774c0.089-0.853,0.177-2,1.033-3.115c1.121-1.377,3.217-1.771,4.78-1.771
		c2.154,0,4.456,0.754,5.253,2.427c0.473,0.983,0.502,1.771,0.502,2.524l-0.118,7.87c0,0.263,0.029,2.46,0.236,4.132H367.257z
		 M365.339,293.225c-1.121,0-5.342,0-5.342,3.345c0,1.05,0.591,2.853,3.069,2.853c1.417,0,2.479-0.623,3.158-1.771
		c0.619-1.114,0.648-2.033,0.708-4.328C366.431,293.258,366.018,293.225,365.339,293.225z"/>
	<path fill="#808285" d="M371.741,284.798h2.626v-3.443l2.744-0.983v4.427h3.306v2.263h-3.306v9.87c0,0.819,0,2.196,1.978,2.196
		c0.561,0,1.092-0.098,1.328-0.164v2.395c-0.502,0.098-1.299,0.196-2.302,0.196c-2.538,0-3.748-0.819-3.748-3.509v-10.984h-2.626
		V284.798z"/>
	<path fill="#808285" d="M382.365,277.715h3.335v3.377h-3.335V277.715z M382.66,284.863h2.774v16.461h-2.774V284.863z"/>
	<path fill="#808285" d="M395.467,284.437c5.932,0,7.26,5.182,7.26,8.624c0,4.82-2.449,8.821-7.496,8.821
		c-4.898,0-7.289-3.771-7.289-8.592C387.942,289.225,389.654,284.437,395.467,284.437z M395.291,299.586
		c2.095,0,4.485-1.672,4.485-6.623c0-4.1-1.712-6.264-4.309-6.264c-1.771,0-4.633,1.246-4.633,6.395
		C390.834,296.471,392.132,299.586,395.291,299.586z"/>
	<path fill="#808285" d="M405.353,286.765l-0.029-1.901h2.773l0.029,2.656c0.325-0.689,1.388-2.984,4.752-2.984
		c1.328,0,5.37,0.558,5.37,5.607v11.182h-2.832v-10.46c0-1.083-0.118-2.066-0.797-2.82c-0.709-0.754-1.683-1.115-2.627-1.115
		c-2.007,0-3.866,1.607-3.866,4.919v9.477h-2.773V286.765z"/>
	<path fill="#808285" d="M423.678,296.438c-0.029,1.246,0.561,2.983,3.246,2.983c1.151,0,2.007-0.229,2.597-1.049
		c0.296-0.427,0.473-0.983,0.473-1.541c0-1.607-1.033-1.902-3.246-2.46c-3.099-0.786-5.695-1.476-5.695-4.918
		c0-3.017,2.36-4.984,5.783-4.984c1.859,0,4.456,0.59,5.342,2.558c0.384,0.918,0.384,1.705,0.384,2.394h-2.833
		c0.089-2.492-1.859-2.688-2.862-2.688c-0.413,0-3.011,0-3.011,2.36c0,1.509,1.328,1.869,2.096,2.099
		c4.102,1.082,4.987,1.345,5.872,2.263c0.827,0.853,1.122,2.001,1.122,3.05c0,1.836-0.915,3.41-2.007,4.164
		c-1.299,0.886-2.862,1.115-4.397,1.115c-3.01,0-5.813-1.377-5.784-5.345H423.678z"/>
	<path fill="#808285" d="M442.949,277.715h3.335v3.377h-3.335V277.715z M443.244,284.863h2.774v16.461h-2.774V284.863z"/>
	<path fill="#808285" d="M450.297,286.765l-0.029-1.901h2.773l0.029,2.656c0.325-0.689,1.388-2.984,4.752-2.984
		c1.328,0,5.371,0.558,5.371,5.607v11.182h-2.834v-10.46c0-1.083-0.117-2.066-0.796-2.82c-0.709-0.754-1.683-1.115-2.627-1.115
		c-2.007,0-3.866,1.607-3.866,4.919v9.477h-2.773V286.765z"/>
	<path fill="#808285" d="M475.41,277.649h12.689v2.787h-9.68v7.378h9.119v2.754h-9.119v10.756h-3.01V277.649z"/>
	<path fill="#808285" d="M496.244,284.437c5.932,0,7.26,5.182,7.26,8.624c0,4.82-2.449,8.821-7.496,8.821
		c-4.898,0-7.289-3.771-7.289-8.592C488.718,289.225,490.43,284.437,496.244,284.437z M496.067,299.586
		c2.095,0,4.485-1.672,4.485-6.623c0-4.1-1.712-6.264-4.309-6.264c-1.771,0-4.633,1.246-4.633,6.395
		C491.611,296.471,492.909,299.586,496.067,299.586z"/>
	<path fill="#808285" d="M505.597,288.208c0-1.115-0.059-2.263-0.147-3.345h2.804l0.059,3.181c0.531-2.296,2.303-3.05,3.542-3.246
		c0.826-0.132,1.445-0.099,1.918-0.066v3.018c-0.147-0.065-0.324-0.099-0.531-0.132c-0.207-0.032-0.473-0.032-0.797-0.032
		c-3.275,0-4.043,2.164-4.043,4.984v8.755h-2.804V288.208z"/>
	<path fill="#808285" d="M517.403,293.651c-0.06,3.41,1.21,5.935,4.249,5.935c1.801,0,3.246-1.049,3.482-3.41h2.774
		c-0.089,0.82-0.207,2.164-1.27,3.443c-0.649,0.819-2.125,2.197-5.105,2.197c-4.662,0-6.876-3.214-6.876-8.428
		c0-3.246,0.591-5.936,2.922-7.738c1.417-1.115,3.188-1.214,4.043-1.214c6.64,0,6.492,6.525,6.434,9.215H517.403z M525.223,291.487
		c0.029-1.574-0.236-4.854-3.659-4.854c-1.801,0-3.984,1.213-4.043,4.854H525.223z"/>
	<path fill="#808285" d="M530.416,286.765l-0.029-1.901h2.773l0.029,2.656c0.325-0.689,1.388-2.984,4.752-2.984
		c1.328,0,5.37,0.558,5.37,5.607v11.182h-2.832v-10.46c0-1.083-0.118-2.066-0.797-2.82c-0.709-0.754-1.683-1.115-2.627-1.115
		c-2.007,0-3.866,1.607-3.866,4.919v9.477h-2.773V286.765z"/>
	<path fill="#808285" d="M548.151,296.438c-0.029,1.246,0.561,2.983,3.246,2.983c1.151,0,2.007-0.229,2.597-1.049
		c0.296-0.427,0.473-0.983,0.473-1.541c0-1.607-1.033-1.902-3.246-2.46c-3.099-0.786-5.695-1.476-5.695-4.918
		c0-3.017,2.36-4.984,5.783-4.984c1.859,0,4.456,0.59,5.342,2.558c0.384,0.918,0.384,1.705,0.384,2.394h-2.833
		c0.089-2.492-1.859-2.688-2.862-2.688c-0.413,0-3.011,0-3.011,2.36c0,1.509,1.328,1.869,2.096,2.099
		c4.102,1.082,4.987,1.345,5.872,2.263c0.827,0.853,1.122,2.001,1.122,3.05c0,1.836-0.915,3.41-2.007,4.164
		c-1.299,0.886-2.862,1.115-4.397,1.115c-3.01,0-5.813-1.377-5.784-5.345H548.151z"/>
	<path fill="#808285" d="M559.836,277.715h3.335v3.377h-3.335V277.715z M560.131,284.863h2.774v16.461h-2.774V284.863z"/>
	<path fill="#808285" d="M575.537,290.143c-0.06-0.754-0.266-3.443-2.951-3.443c-3.837,0-3.837,4.951-3.837,6.197
		c0,3.378,0.738,6.525,3.689,6.525c2.36,0,3.157-1.967,3.217-3.574h2.803c-0.177,3.214-2.331,5.903-5.99,5.903
		c-1.003,0-3.305-0.23-4.869-2.132c-0.886-1.147-1.771-2.886-1.771-6.296c0-6.854,3.777-8.887,6.729-8.887
		c0.974,0,3.187,0.229,4.544,2.033c1.092,1.41,1.181,2.755,1.24,3.673H575.537z"/>
	<path fill="#808285" d="M588.462,277.649h13.368v2.787h-10.418v7.378h9.916v2.754h-9.916v7.87h10.653v2.886h-13.604V277.649z"/>
	<path fill="#808285" d="M602.804,284.863h3.099l4.722,13.051l4.604-13.051h3.068l-6.492,16.461h-2.803L602.804,284.863z"/>
	<path fill="#808285" d="M619.978,277.715h3.335v3.377h-3.335V277.715z M620.273,284.863h2.774v16.461h-2.774V284.863z"/>
	<path fill="#808285" d="M636.917,277.682h2.774v21.02c0,0.36,0.059,1.771,0.118,2.623h-2.774l-0.059-2.623
		c-0.236,0.459-0.561,1.147-1.328,1.737c-1.21,0.919-2.656,1.214-3.659,1.214c-1.978,0-6.374-1.147-6.374-8.362
		c0-6.263,3.216-8.984,6.698-8.984c3.188,0,4.25,2.099,4.604,2.787V277.682z M635.884,288.273c-0.591-0.853-1.683-1.673-3.246-1.673
		c-4.073,0-4.073,5.477-4.073,6.592c0,2.918,0.68,6.296,4.073,6.296c4.367,0,4.367-5.346,4.367-6.624
		C637.005,290.471,636.503,289.159,635.884,288.273z"/>
	<path fill="#808285" d="M644.56,293.651c-0.06,3.41,1.21,5.935,4.249,5.935c1.801,0,3.246-1.049,3.482-3.41h2.774
		c-0.089,0.82-0.207,2.164-1.27,3.443c-0.649,0.819-2.125,2.197-5.105,2.197c-4.662,0-6.876-3.214-6.876-8.428
		c0-3.246,0.591-5.936,2.922-7.738c1.417-1.115,3.188-1.214,4.043-1.214c6.64,0,6.492,6.525,6.434,9.215H644.56z M652.38,291.487
		c0.029-1.574-0.236-4.854-3.659-4.854c-1.801,0-3.984,1.213-4.043,4.854H652.38z"/>
	<path fill="#808285" d="M657.574,286.765l-0.029-1.901h2.773l0.029,2.656c0.325-0.689,1.388-2.984,4.752-2.984
		c1.328,0,5.37,0.558,5.37,5.607v11.182h-2.832v-10.46c0-1.083-0.118-2.066-0.797-2.82c-0.709-0.754-1.683-1.115-2.627-1.115
		c-2.007,0-3.866,1.607-3.866,4.919v9.477h-2.773V286.765z"/>
	<path fill="#808285" d="M682.156,290.143c-0.06-0.754-0.266-3.443-2.951-3.443c-3.837,0-3.837,4.951-3.837,6.197
		c0,3.378,0.738,6.525,3.689,6.525c2.36,0,3.157-1.967,3.217-3.574h2.803c-0.177,3.214-2.331,5.903-5.99,5.903
		c-1.003,0-3.305-0.23-4.869-2.132c-0.886-1.147-1.771-2.886-1.771-6.296c0-6.854,3.777-8.887,6.729-8.887
		c0.974,0,3.187,0.229,4.544,2.033c1.092,1.41,1.181,2.755,1.24,3.673H682.156z"/>
	<path fill="#808285" d="M689.533,293.651c-0.06,3.41,1.21,5.935,4.249,5.935c1.801,0,3.246-1.049,3.482-3.41h2.774
		c-0.089,0.82-0.207,2.164-1.27,3.443c-0.649,0.819-2.125,2.197-5.105,2.197c-4.662,0-6.876-3.214-6.876-8.428
		c0-3.246,0.591-5.936,2.922-7.738c1.417-1.115,3.188-1.214,4.043-1.214c6.64,0,6.492,6.525,6.434,9.215H689.533z M697.353,291.487
		c0.029-1.574-0.236-4.854-3.659-4.854c-1.801,0-3.984,1.213-4.043,4.854H697.353z"/>
</g>
<line fill="none" stroke="#D0202E" stroke-width="5.1788" stroke-linecap="round" stroke-miterlimit="10" x1="279.147" y1="227.579" x2="700.4" y2="227.579"/>
<g>
	<path fill="#D0202E" d="M193.571,253.05c21.495-36.585,16.357-79.499-11.476-95.851c-2.728-1.602-5.57-2.884-8.496-3.866
		c7.316,0.447,14.363,2.472,20.765,6.232c27.831,16.352,30.188,59.067,8.691,95.653c-19.389,33.008-51.043,49.779-78.033,40.701
		C149.508,297.421,177.021,281.222,193.571,253.05z"/>
	<path fill="#27AAE1" d="M182.681,247.341c21.698-26.979,22.648-62.229,2.122-78.735c-2.01-1.618-4.153-2.99-6.399-4.13
		c5.853,1.229,11.301,3.701,16.022,7.497c20.523,16.505,19.574,51.757-2.124,78.737c-19.571,24.34-49.339,33.625-70.047,23.094
		C141.843,277.925,165.976,268.116,182.681,247.341z"/>
	<path fill="#D7DF23" d="M116.09,189.23c-19.235,29.864-15.423,68.581,8.513,86.476c2.342,1.75,4.792,3.236,7.319,4.463
		c-6.348-1.287-12.44-3.936-17.944-8.051c-23.935-17.895-27.745-56.61-8.512-86.477c17.353-26.942,47.527-37.475,70.839-26.141
		C155.056,155.196,130.899,166.235,116.09,189.23z"/>
	<path fill="#EC008C" d="M108.512,186.076C85.373,222,89.959,268.573,118.752,290.095c2.817,2.107,5.764,3.893,8.804,5.367
		c-7.636-1.547-14.966-4.732-21.586-9.684c-28.792-21.521-30.593-67.896-7.456-103.822c20.874-32.409,60.288-42.713,82.427-31.643
		C155.38,145.137,126.325,158.414,108.512,186.076z"/>
	<path fill="#6BA2B8" d="M129.052,194.859c15.136-21.82,40.286-30.573,56.176-19.552c1.554,1.08,2.962,2.311,4.224,3.667
		c-2.031-3.937-4.876-7.3-8.533-9.836c-15.889-11.02-41.039-2.268-56.174,19.552c-13.654,19.684-14.49,43.274-2.858,55.797
		C115.083,231.306,117.398,211.66,129.052,194.859z"/>
	<path fill="#565759" d="M173.365,228.106c-15.136,21.82-40.287,30.57-56.175,19.553c-1.556-1.082-2.963-2.312-4.225-3.672
		c2.031,3.938,4.875,7.301,8.534,9.838c15.888,11.021,41.04,2.268,56.174-19.551c13.654-19.684,14.489-43.276,2.854-55.798
		C187.332,191.657,185.019,211.304,173.365,228.106z"/>
	<path fill="#6BA2B8" d="M199.612,151.417c-35.434-24.577-91.518-5.06-125.268,43.596c-12.718,18.336-20.448,38.197-23.249,57.14
		c1.911-20.762,9.879-42.977,23.989-63.317c33.749-48.656,89.835-68.174,125.268-43.596c22.079,15.315,30.928,44.137,26.3,75.461
		C229.311,191.803,220.232,165.719,199.612,151.417z"/>
	<path fill="#008345" d="M201.531,140.065c-35.661-24.736-91.54-6.293-126.697,41.069c0.896-1.385,1.815-2.767,2.764-4.136
		c34.917-50.337,92.943-70.532,129.601-45.105c36.659,25.429,38.073,86.852,3.157,137.188c-0.949,1.369-1.919,2.715-2.904,4.041
		C239.497,223.6,237.194,164.802,201.531,140.065z"/>
	<path fill="#F4BD47" d="M103.279,290.005c-35.661-24.738-37.963-83.536-5.919-133.058c-0.985,1.326-1.955,2.67-2.905,4.038
		c-34.917,50.34-33.503,111.764,3.157,137.192c36.66,25.426,94.684,5.232,129.601-45.107c0.949-1.369,1.867-2.748,2.765-4.137
		C194.82,296.296,138.942,314.737,103.279,290.005z"/>
	<path fill="#1E376C" d="M165.651,178.505c0.302,0.169,0.577,0.379,0.827,0.625c-4.085-0.957-11.235,5.336-16.603,14.854
		c-5.763,10.215-7.29,20.266-3.412,22.453c3.615,2.041,10.644-3.481,16.249-12.51c-0.408,0.792-0.836,1.587-1.284,2.382
		c-7.135,12.649-16.808,20.71-21.608,18.002c-4.803-2.709-2.91-15.159,4.221-27.808
		C151.176,183.857,160.849,175.798,165.651,178.505z"/>
	<path fill="#2E5697" d="M137.18,231.162c6.522,3.676,18.028-4.372,25.701-17.979c7.146-12.674,8.445-25.694,3.317-30.392
		c0.552,0.171,1.081,0.398,1.585,0.686c8.073,4.554,6.918,21.905-2.584,38.752c-9.5,16.85-23.75,26.814-31.826,22.262
		c-8.073-4.555-6.918-21.904,2.583-38.753c0.593-1.053,1.205-2.078,1.832-3.073C131.504,215.343,131.107,227.733,137.18,231.162z"/>
	<path fill="#005789" d="M128.788,120.234c-15.276,10.812-29.386,25.595-40.696,43.693C53.604,219.12,58.228,284.226,98.424,309.343
		c24.493,15.307,56.541,12.234,85.645-4.99c-31.312,22.164-67.522,27.646-94.537,10.762
		c-40.195-25.115-44.823-90.223-10.331-145.416C92.674,148.134,110.124,131.276,128.788,120.234z"/>
	<path fill="#AC1F2D" d="M214.879,278.646c38.685-55.773,37.119-123.822-3.497-151.994c-9.855-6.837-21.108-10.688-33.047-11.816
		c15.164-0.208,29.53,3.685,41.75,12.162c40.617,28.172,42.18,96.221,3.498,151.994c-29.295,42.232-73.272,65.309-110.53,61.789
		C148.286,340.294,187.839,317.63,214.879,278.646z"/>
	<path fill="#EE2A7B" d="M224.68,108.132c-44.656-27.901-111.918-0.817-150.235,60.504c-11.735,18.779-19.386,38.591-23.082,57.844
		c2.635-22.534,10.815-46.271,24.738-68.553c38.319-61.32,105.78-91.188,150.438-63.286c30.979,19.361,42.731,62.885,34.358,106.5
		C265.515,161.669,253.108,125.899,224.68,108.132z"/>
	<path fill="#8DC63F" d="M82.019,316.425c43.7,27.309,109.043,1.947,147.731-56.613c-0.782,1.324-1.574,2.643-2.396,3.959
		c-38.316,61.316-108.463,89.598-153.119,61.691c-44.656-27.904-46.912-101.428-8.594-162.747c0.82-1.313,1.66-2.606,2.506-3.888
		C32.471,219.27,38.319,289.12,82.019,316.425z"/>
	<path fill="#F78D2C" d="M210.127,110.185c13.721,8.574,23.606,22.741,29.751,38.097c-6.196-12.237-15.108-22.46-26.682-29.69
		c-44.656-27.905-111.92-0.819-150.238,60.5c-26.542,42.477-32.226,90.232-18.374,124.849
		c-17.711-34.975-12.783-92.003,15.602-137.428C98.504,105.193,165.468,82.279,210.127,110.185z"/>
	<path fill="#92278F" d="M225.694,273.94c40.184-57.933,39.591-128.296-0.578-159.59c1.108,0.681,2.206,1.385,3.283,2.131
		c43.27,30.014,48.978,98.961,9.489,159.533c-42.298,64.887-115.457,85.637-158.725,55.625c-1.079-0.746-2.122-1.529-3.146-2.33
		C119.398,355.97,185.512,331.874,225.694,273.94z"/>
</g>
<g>
	<path fill="#808285" d="M344.976,150.65c-4.989-7.661-11.938-13.007-22.45-13.007c-16.215,0-27.974,12.471-27.974,27.974
		c0,15.501,11.759,27.973,27.974,27.973c10.156,0,17.461-5.167,22.45-13.007l16.215,9.622
		c-7.663,12.114-22.273,20.846-38.665,20.846c-30.111,0-47.574-22.628-47.574-45.434c0-22.807,17.462-45.435,47.574-45.435
		c18.352,0,30.29,8.73,38.665,20.846L344.976,150.65z"/>
	<path fill="#808285" d="M376.332,183.078c6.592,7.127,17.462,12.65,27.082,12.65c10.692,0,17.106-6.057,17.106-10.868
		c0-5.702-4.456-8.731-11.225-9.979l-10.514-1.96c-24.231-4.455-31.003-12.292-31.003-24.587c0-14.61,12.294-28.151,33.855-28.151
		c11.938,0,22.449,3.563,34.209,11.938l-10.512,13.005c-9.088-7.66-17.106-9.622-23.162-9.622c-8.019,0-15.859,3.92-15.859,10.869
		c0,5.167,4.098,7.841,11.225,9.087l18.709,3.564c15.324,2.851,22.806,10.155,22.806,22.984c0,12.651-10.332,29.042-36.526,29.042
		c-14.609,0-27.081-5.167-38.841-15.146L376.332,183.078z"/>
	<path fill="#808285" d="M516.199,198.221h-0.358c-5.88,7.841-16.569,12.83-28.329,12.83c-28.331,0-44.723-23.163-44.723-45.434
		c0-21.204,17.64-45.435,45.614-45.435c12.828,0,22.627,5.523,27.438,12.828h0.358v-10.513h18.528v86.237h-18.528V198.221z
		 M489.829,193.59c14.609,0,27.081-12.472,27.081-27.973c0-15.503-12.472-27.974-27.081-27.974
		c-14.968,0-27.439,12.471-27.439,27.974C462.389,181.118,474.861,193.59,489.829,193.59z"/>
	<path fill="#808285" d="M554.327,140.393h-12.115v-17.46h12.115v-14.609c0-16.038,9.801-31.182,32.072-31.182
		c4.454,0,10.333,0.713,14.255,2.316l-7.662,16.748c-2.495-1.069-4.811-1.604-8.195-1.604c-7.483,0-11.939,6.237-11.939,12.651
		v15.68h18.53v17.46h-18.53v101.356h-18.53V140.393z"/>
	<path fill="#808285" d="M677.712,190.027c-10.334,13.005-24.589,20.846-40.091,21.024c-30.109,0-47.572-22.628-47.572-45.434
		c0-22.807,17.463-45.435,47.572-45.435c17.998,0,44.723,14.788,44.723,48.462v3.387h-71.626
		c1.069,13.184,13.364,22.628,26.371,22.628c9.977,0,18.53-4.811,24.944-13.364L677.712,190.027z M660.608,156.708
		c-3.919-13.184-13.72-20.134-25.479-20.134c-11.759,0-21.382,7.306-24.41,20.134H660.608z"/>
</g>
</svg>
