<?xml version="1.0" encoding="UTF-8" standalone="no"?>
<!-- Generator: Adobe Illustrator 16.0.0, SVG Export Plug-In . SVG Version: 6.00 Build 0)  -->

<svg
   xmlns:dc="http://purl.org/dc/elements/1.1/"
   xmlns:cc="http://creativecommons.org/ns#"
   xmlns:rdf="http://www.w3.org/1999/02/22-rdf-syntax-ns#"
   xmlns:svg="http://www.w3.org/2000/svg"
   xmlns="http://www.w3.org/2000/svg"
   xmlns:sodipodi="http://sodipodi.sourceforge.net/DTD/sodipodi-0.dtd"
   xmlns:inkscape="http://www.inkscape.org/namespaces/inkscape"
   version="1.1"
   id="Layer_1"
   x="0px"
   y="0px"
   width="180px"
   height="90px"
   viewBox="0 0 180 90"
   enable-background="new 0 0 180 90"
   xml:space="preserve"
   sodipodi:docname="nist-logo-inverted.svg"
   inkscape:version="0.92.2 2405546, 2018-03-11"><metadata
   id="metadata147"><rdf:RDF><cc:Work
       rdf:about=""><dc:format>image/svg+xml</dc:format><dc:type
         rdf:resource="http://purl.org/dc/dcmitype/StillImage" /><dc:title></dc:title></cc:Work></rdf:RDF></metadata><defs
   id="defs145" /><sodipodi:namedview
   pagecolor="#ffffff"
   bordercolor="#666666"
   borderopacity="1"
   objecttolerance="10"
   gridtolerance="10"
   guidetolerance="10"
   inkscape:pageopacity="0"
   inkscape:pageshadow="2"
   inkscape:window-width="3840"
   inkscape:window-height="2038"
   id="namedview143"
   showgrid="false"
   inkscape:pagecheckerboard="true"
   inkscape:zoom="5.2444444"
   inkscape:cx="101.49532"
   inkscape:cy="16.639384"
   inkscape:window-x="0"
   inkscape:window-y="50"
   inkscape:window-maximized="1"
   inkscape:current-layer="Layer_1" />
<g
   id="g132"
   style="fill:#ffffff;fill-opacity:0.94117647">
	<path
   d="M29.166,41.264h2.317l4.244,5.45h0.024v-5.45h2.317v8.914h-2.317l-4.244-5.463h-0.024v5.463h-2.317V41.264z"
   id="path2"
   style="fill:#ffffff;fill-opacity:0.94117647" />
	<path
   d="M46.168,50.178h-2.152v-0.674h-0.024c-0.379,0.603-1.123,0.874-1.833,0.874c-1.796,0-3.062-1.502-3.062-3.239   s1.242-3.228,3.038-3.228c0.698,0,1.432,0.261,1.881,0.793v-0.593h2.152V50.178z M41.32,47.15c0,0.769,0.508,1.359,1.384,1.359   c0.875,0,1.382-0.591,1.382-1.359c0-0.744-0.508-1.37-1.382-1.37C41.828,45.78,41.32,46.406,41.32,47.15z"
   id="path4"
   style="fill:#ffffff;fill-opacity:0.94117647" />
	<path
   d="M49.951,50.178h-2.151v-4.292h-0.698v-1.774h0.698v-1.82h2.151v1.82h1.219v1.774h-1.219V50.178z"
   id="path6"
   style="fill:#ffffff;fill-opacity:0.94117647" />
	<path
   d="M54.136,41.783c0,0.663-0.543,1.206-1.205,1.206c-0.663,0-1.206-0.543-1.206-1.206c0-0.662,0.543-1.205,1.206-1.205   C53.593,40.578,54.136,41.121,54.136,41.783z M54.007,50.178h-2.152v-6.066h2.152V50.178z"
   id="path8"
   style="fill:#ffffff;fill-opacity:0.94117647" />
	<path
   d="M62.282,47.15c0,2.058-1.702,3.228-3.653,3.228c-1.938,0-3.653-1.157-3.653-3.228c0-2.067,1.702-3.239,3.653-3.239   S62.282,45.083,62.282,47.15z M57.247,47.15c0,0.769,0.508,1.359,1.382,1.359c0.876,0,1.384-0.591,1.384-1.359   c0-0.744-0.508-1.37-1.384-1.37C57.755,45.78,57.247,46.406,57.247,47.15z"
   id="path10"
   style="fill:#ffffff;fill-opacity:0.94117647" />
	<path
   d="M65.404,44.892h0.024c0.497-0.733,1.1-0.981,1.94-0.981c1.63,0,2.28,1.029,2.28,2.519v3.748h-2.151v-2.956   c0-0.579,0.095-1.596-0.969-1.596c-0.876,0-1.124,0.65-1.124,1.406v3.146h-2.152v-6.066h2.152V44.892z"
   id="path12"
   style="fill:#ffffff;fill-opacity:0.94117647" />
	<path
   d="M77.701,50.178h-2.151v-0.674h-0.024c-0.378,0.603-1.123,0.874-1.833,0.874c-1.797,0-3.061-1.502-3.061-3.239   s1.24-3.228,3.039-3.228c0.697,0,1.43,0.261,1.879,0.793v-0.593h2.151V50.178z M72.853,47.15c0,0.769,0.51,1.359,1.384,1.359   s1.384-0.591,1.384-1.359c0-0.744-0.509-1.37-1.384-1.37S72.853,46.406,72.853,47.15z"
   id="path14"
   style="fill:#ffffff;fill-opacity:0.94117647" />
	<path
   d="M81.285,50.178h-2.154v-9.814h2.154V50.178z"
   id="path16"
   style="fill:#ffffff;fill-opacity:0.94117647" />
	<path
   d="M89.123,50.178h-2.319v-8.914h2.319V50.178z"
   id="path18"
   style="fill:#ffffff;fill-opacity:0.94117647" />
	<path
   d="M92.74,44.892h0.023c0.497-0.733,1.1-0.981,1.94-0.981c1.631,0,2.28,1.029,2.28,2.519v3.748h-2.151v-2.956   c0-0.579,0.096-1.596-0.97-1.596c-0.875,0-1.123,0.65-1.123,1.406v3.146h-2.152v-6.066h2.152V44.892z"
   id="path20"
   style="fill:#ffffff;fill-opacity:0.94117647" />
	<path
   d="M102.412,45.672c-0.331-0.177-0.792-0.294-1.159-0.294c-0.247,0-0.674,0.106-0.674,0.412c0,0.414,0.674,0.475,0.97,0.534   c1.005,0.2,1.762,0.673,1.762,1.796c0,1.597-1.454,2.258-2.86,2.258c-0.863,0-1.716-0.247-2.448-0.697l0.78-1.502   c0.438,0.31,1.171,0.615,1.703,0.615c0.272,0,0.673-0.131,0.673-0.461c0-0.473-0.673-0.497-1.347-0.673   c-0.674-0.179-1.349-0.51-1.349-1.596c0-1.491,1.349-2.153,2.672-2.153c0.687,0,1.372,0.106,1.999,0.392L102.412,45.672z"
   id="path22"
   style="fill:#ffffff;fill-opacity:0.94117647" />
	<path
   d="M106.822,50.178h-2.151v-4.292h-0.698v-1.774h0.698v-1.82h2.151v1.82h1.219v1.774h-1.219V50.178z"
   id="path24"
   style="fill:#ffffff;fill-opacity:0.94117647" />
	<path
   d="M111.007,41.783c0,0.663-0.544,1.206-1.205,1.206c-0.662,0-1.207-0.543-1.207-1.206c0-0.662,0.545-1.205,1.207-1.205   C110.463,40.578,111.007,41.121,111.007,41.783z M110.878,50.178h-2.152v-6.066h2.152V50.178z"
   id="path26"
   style="fill:#ffffff;fill-opacity:0.94117647" />
	<path
   d="M114.648,50.178h-2.152v-4.292h-0.697v-1.774h0.697v-1.82h2.152v1.82h1.219v1.774h-1.219V50.178z"
   id="path28"
   style="fill:#ffffff;fill-opacity:0.94117647" />
	<path
   d="M118.67,44.111v3.239c0,0.77,0.188,1.312,1.074,1.312c0.888,0,1.077-0.543,1.077-1.312v-3.239h2.151v3.653   c0,1.999-1.407,2.613-3.229,2.613c-1.819,0-3.228-0.614-3.228-2.613v-3.653H118.67z"
   id="path30"
   style="fill:#ffffff;fill-opacity:0.94117647" />
	<path
   d="M126.697,50.178h-2.152v-4.292h-0.697v-1.774h0.697v-1.82h2.152v1.82h1.218v1.774h-1.218V50.178z"
   id="path32"
   style="fill:#ffffff;fill-opacity:0.94117647" />
	<path
   d="M134.832,47.505h-4.528c0,0.875,0.46,1.35,1.348,1.35c0.46,0,0.792-0.154,1.029-0.558h2.068   c-0.343,1.432-1.703,2.081-3.087,2.081c-2.009,0-3.511-1.135-3.511-3.228c0-2.021,1.384-3.239,3.358-3.239   c2.104,0,3.322,1.301,3.322,3.37V47.505z M132.834,46.265c-0.105-0.58-0.64-0.959-1.218-0.959c-0.627,0-1.146,0.331-1.277,0.959   H132.834z"
   id="path34"
   style="fill:#ffffff;fill-opacity:0.94117647" />
	<path
   d="M146.726,47.15c0,2.058-1.702,3.228-3.652,3.228c-1.939,0-3.655-1.157-3.655-3.228c0-2.067,1.703-3.239,3.655-3.239   C145.023,43.911,146.726,45.083,146.726,47.15z M141.689,47.15c0,0.769,0.509,1.359,1.384,1.359s1.384-0.591,1.384-1.359   c0-0.744-0.509-1.37-1.384-1.37S141.689,46.406,141.689,47.15z"
   id="path36"
   style="fill:#ffffff;fill-opacity:0.94117647" />
	<path
   d="M150.061,50.178h-2.151v-4.292h-0.758v-1.774h0.758v-0.768c0-0.839,0.022-1.454,0.614-2.128   c0.532-0.627,1.3-0.97,2.117-0.97c0.33,0,0.625,0.059,0.922,0.212v1.856c-0.249-0.107-0.473-0.201-0.758-0.201   c-0.555,0-0.744,0.332-0.744,1.016v0.981h1.502v1.774h-1.502V50.178z"
   id="path38"
   style="fill:#ffffff;fill-opacity:0.94117647" />
	<path
   d="M13.629,57.827c-0.425-0.355-0.97-0.593-1.537-0.593c-0.425,0-0.994,0.249-0.994,0.745c0,0.521,0.628,0.722,1.029,0.853   l0.591,0.177c1.242,0.366,2.199,0.994,2.199,2.436c0,0.887-0.211,1.798-0.922,2.399c-0.697,0.593-1.631,0.84-2.53,0.84   c-1.123,0-2.222-0.377-3.133-1.016l0.994-1.869c0.578,0.508,1.264,0.923,2.056,0.923c0.544,0,1.124-0.272,1.124-0.898   c0-0.65-0.911-0.875-1.408-1.019c-1.454-0.412-2.411-0.79-2.411-2.518c0-1.81,1.289-2.99,3.074-2.99   c0.898,0,1.999,0.283,2.79,0.732L13.629,57.827z"
   id="path40"
   style="fill:#ffffff;fill-opacity:0.94117647" />
	<path
   d="M18.323,64.448h-2.151v-4.293h-0.698v-1.773h0.698v-1.821h2.151v1.821h1.218v1.773h-1.218V64.448z"
   id="path42"
   style="fill:#ffffff;fill-opacity:0.94117647" />
	<path
   d="M26.859,64.448h-2.151v-0.675h-0.024c-0.377,0.604-1.123,0.875-1.831,0.875c-1.798,0-3.063-1.502-3.063-3.239   c0-1.738,1.241-3.229,3.039-3.229c0.697,0,1.43,0.262,1.879,0.793v-0.592h2.151V64.448z M22.013,61.421   c0,0.769,0.508,1.359,1.383,1.359c0.874,0,1.384-0.591,1.384-1.359c0-0.744-0.51-1.371-1.384-1.371   C22.521,60.05,22.013,60.677,22.013,61.421z"
   id="path44"
   style="fill:#ffffff;fill-opacity:0.94117647" />
	<path
   d="M30.443,59.162h0.024c0.495-0.732,1.099-0.981,1.938-0.981c1.632,0,2.282,1.029,2.282,2.52v3.748h-2.152v-2.956   c0-0.58,0.094-1.596-0.969-1.596c-0.875,0-1.123,0.649-1.123,1.406v3.146h-2.152v-6.066h2.152V59.162z"
   id="path46"
   style="fill:#ffffff;fill-opacity:0.94117647" />
	<path
   d="M40.669,63.773h-0.022c-0.379,0.604-1.124,0.875-1.833,0.875c-1.798,0-3.062-1.502-3.062-3.239   c0-1.738,1.242-3.229,3.039-3.229c0.698,0,1.431,0.262,1.879,0.793v-4.34h2.153v9.814h-2.153V63.773z M37.974,61.421   c0,0.769,0.508,1.359,1.382,1.359c0.876,0,1.384-0.591,1.384-1.359c0-0.744-0.508-1.371-1.384-1.371   C38.482,60.05,37.974,60.677,37.974,61.421z"
   id="path48"
   style="fill:#ffffff;fill-opacity:0.94117647" />
	<path
   d="M50.803,64.448h-2.151v-0.675h-0.024c-0.379,0.604-1.125,0.875-1.833,0.875c-1.797,0-3.063-1.502-3.063-3.239   c0-1.738,1.242-3.229,3.039-3.229c0.697,0,1.43,0.262,1.881,0.793v-0.592h2.151V64.448z M45.955,61.421   c0,0.769,0.508,1.359,1.384,1.359c0.875,0,1.383-0.591,1.383-1.359c0-0.744-0.508-1.371-1.383-1.371   C46.463,60.05,45.955,60.677,45.955,61.421z"
   id="path50"
   style="fill:#ffffff;fill-opacity:0.94117647" />
	<path
   d="M54.385,59.375h0.024c0.414-0.745,1.123-1.075,1.962-1.075h0.414v2.069c-0.295-0.166-0.58-0.2-0.909-0.2   c-1.195,0-1.491,0.791-1.491,1.831v2.448h-2.152v-6.066h2.152V59.375z"
   id="path52"
   style="fill:#ffffff;fill-opacity:0.94117647" />
	<path
   d="M62.154,63.773H62.13c-0.379,0.604-1.125,0.875-1.833,0.875c-1.797,0-3.063-1.502-3.063-3.239   c0-1.738,1.242-3.229,3.039-3.229c0.697,0,1.431,0.262,1.881,0.793v-4.34h2.151v9.814h-2.151V63.773z M59.457,61.421   c0,0.769,0.508,1.359,1.384,1.359c0.875,0,1.383-0.591,1.383-1.359c0-0.744-0.508-1.371-1.383-1.371   C59.965,60.05,59.457,60.677,59.457,61.421z"
   id="path54"
   style="fill:#ffffff;fill-opacity:0.94117647" />
	<path
   d="M69.661,59.942c-0.331-0.177-0.793-0.295-1.159-0.295c-0.249,0-0.674,0.106-0.674,0.415c0,0.413,0.674,0.473,0.97,0.531   c1.005,0.201,1.761,0.674,1.761,1.796c0,1.597-1.454,2.259-2.862,2.259c-0.863,0-1.713-0.248-2.446-0.697l0.781-1.502   c0.437,0.308,1.17,0.614,1.703,0.614c0.271,0,0.674-0.128,0.674-0.46c0-0.473-0.674-0.497-1.349-0.674   c-0.674-0.179-1.348-0.509-1.348-1.598c0-1.489,1.348-2.151,2.673-2.151c0.686,0,1.371,0.106,1.998,0.39L69.661,59.942z"
   id="path56"
   style="fill:#ffffff;fill-opacity:0.94117647" />
	<path
   d="M82.407,64.448h-2.153v-0.675h-0.022c-0.379,0.604-1.125,0.875-1.833,0.875c-1.798,0-3.063-1.502-3.063-3.239   c0-1.738,1.243-3.229,3.039-3.229c0.697,0,1.43,0.262,1.879,0.793v-0.592h2.153V64.448z M77.56,61.421   c0,0.769,0.508,1.359,1.382,1.359c0.876,0,1.384-0.591,1.384-1.359c0-0.744-0.508-1.371-1.384-1.371   C78.067,60.05,77.56,60.677,77.56,61.421z"
   id="path58"
   style="fill:#ffffff;fill-opacity:0.94117647" />
	<path
   d="M85.989,59.162h0.024c0.497-0.732,1.099-0.981,1.938-0.981c1.632,0,2.282,1.029,2.282,2.52v3.748h-2.151v-2.956   c0-0.58,0.094-1.596-0.97-1.596c-0.875,0-1.123,0.649-1.123,1.406v3.146h-2.152v-6.066h2.152V59.162z"
   id="path60"
   style="fill:#ffffff;fill-opacity:0.94117647" />
	<path
   d="M96.217,63.773h-0.023c-0.379,0.604-1.123,0.875-1.833,0.875c-1.797,0-3.063-1.502-3.063-3.239   c0-1.738,1.242-3.229,3.039-3.229c0.697,0,1.432,0.262,1.881,0.793v-4.34h2.151v9.814h-2.151V63.773z M93.521,61.421   c0,0.769,0.508,1.359,1.384,1.359c0.875,0,1.383-0.591,1.383-1.359c0-0.744-0.508-1.371-1.383-1.371   C94.028,60.05,93.521,60.677,93.521,61.421z"
   id="path62"
   style="fill:#ffffff;fill-opacity:0.94117647" />
	<path
   d="M107.365,64.448h-2.317v-6.952h-1.914v-1.962h6.147v1.962h-1.916V64.448z"
   id="path64"
   style="fill:#ffffff;fill-opacity:0.94117647" />
	<path
   d="M115.43,61.775h-4.528c0,0.876,0.461,1.35,1.348,1.35c0.461,0,0.793-0.154,1.028-0.557h2.07   c-0.344,1.43-1.704,2.08-3.086,2.08c-2.01,0-3.512-1.135-3.512-3.228c0-2.022,1.384-3.24,3.356-3.24   c2.105,0,3.323,1.301,3.323,3.371V61.775z M113.432,60.535c-0.107-0.58-0.639-0.959-1.218-0.959c-0.626,0-1.147,0.331-1.278,0.959   H113.432z"
   id="path66"
   style="fill:#ffffff;fill-opacity:0.94117647" />
	<path
   d="M120.785,60.356c-0.319-0.235-0.698-0.425-1.11-0.425c-0.828,0-1.478,0.639-1.478,1.478c0,0.874,0.626,1.489,1.512,1.489   c0.378,0,0.792-0.153,1.076-0.413v1.821c-0.472,0.234-0.993,0.342-1.514,0.342c-1.796,0-3.298-1.336-3.298-3.167   c0-1.952,1.488-3.301,3.394-3.301c0.495,0,0.993,0.119,1.418,0.355V60.356z"
   id="path68"
   style="fill:#ffffff;fill-opacity:0.94117647" />
	<path
   d="M124.272,54.634v4.518h0.024c0.497-0.663,1.101-0.971,1.94-0.971c1.535,0,2.282,1.018,2.282,2.555v3.713h-2.153v-3.11   c0-0.709-0.105-1.441-0.969-1.441c-0.853,0-1.125,0.732-1.125,1.441v3.11h-2.151v-9.814H124.272z"
   id="path70"
   style="fill:#ffffff;fill-opacity:0.94117647" />
	<path
   d="M132.09,59.162h0.023c0.495-0.732,1.099-0.981,1.938-0.981c1.633,0,2.282,1.029,2.282,2.52v3.748h-2.151v-2.956   c0-0.58,0.094-1.596-0.971-1.596c-0.874,0-1.122,0.649-1.122,1.406v3.146h-2.151v-6.066h2.151V59.162z"
   id="path72"
   style="fill:#ffffff;fill-opacity:0.94117647" />
	<path
   d="M144.611,61.421c0,2.058-1.703,3.228-3.653,3.228c-1.94,0-3.655-1.158-3.655-3.228c0-2.07,1.703-3.24,3.655-3.24   C142.908,58.181,144.611,59.351,144.611,61.421z M139.573,61.421c0,0.769,0.509,1.359,1.385,1.359c0.873,0,1.381-0.591,1.381-1.359   c0-0.744-0.508-1.371-1.381-1.371C140.082,60.05,139.573,60.677,139.573,61.421z"
   id="path74"
   style="fill:#ffffff;fill-opacity:0.94117647" />
	<path
   d="M147.732,64.448h-2.153v-9.814h2.153V64.448z"
   id="path76"
   style="fill:#ffffff;fill-opacity:0.94117647" />
	<path
   d="M156.008,61.421c0,2.058-1.703,3.228-3.653,3.228c-1.938,0-3.653-1.158-3.653-3.228c0-2.07,1.701-3.24,3.653-3.24   C154.305,58.181,156.008,59.351,156.008,61.421z M150.972,61.421c0,0.769,0.508,1.359,1.383,1.359c0.876,0,1.384-0.591,1.384-1.359   c0-0.744-0.508-1.371-1.384-1.371C151.479,60.05,150.972,60.677,150.972,61.421z"
   id="path78"
   style="fill:#ffffff;fill-opacity:0.94117647" />
	<path
   d="M163.634,63.856c0,2.577-1.276,3.618-3.511,3.618c-1.396,0-3.263-0.72-3.453-2.318h2.412   c0.058,0.214,0.213,0.368,0.402,0.462c0.189,0.095,0.414,0.143,0.614,0.143c1.159,0,1.383-0.757,1.383-1.738v-0.283   c-0.556,0.555-1.123,0.826-1.927,0.826c-1.773,0-2.991-1.348-2.991-3.097c0-1.773,1.253-3.288,3.11-3.288   c0.709,0,1.358,0.237,1.786,0.84h0.021v-0.639h2.152V63.856z M158.787,61.374c0,0.768,0.508,1.36,1.382,1.36   c0.876,0,1.384-0.593,1.384-1.36c0-0.745-0.508-1.371-1.384-1.371C159.295,60.003,158.787,60.629,158.787,61.374z"
   id="path80"
   style="fill:#ffffff;fill-opacity:0.94117647" />
	<path
   d="M164.096,58.382h2.481l1.62,3.11l1.585-3.11h2.448l-4.861,9.093h-2.41l2.068-3.854L164.096,58.382z"
   id="path82"
   style="fill:#ffffff;fill-opacity:0.94117647" />
	<path
   d="M13.322,75.52c0,0.661-0.024,1.419,0.39,1.985c0.39,0.544,1.146,0.852,1.796,0.852c0.639,0,1.336-0.295,1.75-0.792   c0.473-0.567,0.438-1.348,0.438-2.045v-5.31h0.993v5.581c0,0.969-0.07,1.739-0.781,2.471c-0.615,0.662-1.502,1.019-2.4,1.019   c-0.839,0-1.702-0.321-2.306-0.911c-0.78-0.746-0.874-1.562-0.874-2.578V70.21h0.994V75.52z"
   id="path84"
   style="fill:#ffffff;fill-opacity:0.94117647" />
	<path
   d="M22.035,78.604c0,0.366-0.295,0.676-0.663,0.676c-0.366,0-0.661-0.31-0.661-0.676c0-0.353,0.295-0.649,0.661-0.649   C21.74,77.955,22.035,78.252,22.035,78.604z"
   id="path86"
   style="fill:#ffffff;fill-opacity:0.94117647" />
	<path
   d="M28.137,71.949c-0.355-0.615-0.781-0.971-1.537-0.971c-0.793,0-1.478,0.568-1.478,1.383c0,0.771,0.792,1.125,1.395,1.397   l0.591,0.259c1.159,0.508,2.14,1.088,2.14,2.507c0,1.562-1.253,2.756-2.803,2.756c-1.43,0-2.494-0.924-2.777-2.307l0.968-0.271   c0.131,0.91,0.828,1.654,1.785,1.654c0.959,0,1.833-0.733,1.833-1.737c0-1.041-0.815-1.396-1.644-1.773l-0.543-0.237   c-1.042-0.473-1.94-1.004-1.94-2.281c0-1.384,1.17-2.27,2.496-2.27c0.992,0,1.832,0.508,2.304,1.382L28.137,71.949z"
   id="path88"
   style="fill:#ffffff;fill-opacity:0.94117647" />
	<path
   d="M32.287,78.604c0,0.366-0.296,0.676-0.663,0.676c-0.366,0-0.662-0.31-0.662-0.676c0-0.353,0.296-0.649,0.662-0.649   C31.991,77.955,32.287,78.252,32.287,78.604z"
   id="path90"
   style="fill:#ffffff;fill-opacity:0.94117647" />
	<path
   d="M37.985,70.21h1.679c1.336,0,2.424,0.178,3.477,1.076c1.016,0.875,1.478,2.069,1.478,3.394c0,1.3-0.473,2.447-1.454,3.323   c-1.064,0.946-2.129,1.122-3.524,1.122h-1.655V70.21z M39.7,78.204c1.086,0,1.997-0.155,2.813-0.923   c0.734-0.687,1.111-1.62,1.111-2.614c0-1.016-0.39-1.997-1.157-2.672c-0.817-0.721-1.716-0.863-2.767-0.863h-0.721v7.072H39.7z"
   id="path92"
   style="fill:#ffffff;fill-opacity:0.94117647" />
	<path
   d="M46.474,76.549c0.013,1.026,0.745,1.855,1.822,1.855c0.804,0,1.323-0.484,1.689-1.146l0.804,0.461   c-0.532,0.993-1.43,1.562-2.565,1.562c-1.655,0-2.719-1.267-2.719-2.862c0-1.644,0.958-3.004,2.695-3.004   c1.785,0,2.731,1.479,2.637,3.135H46.474z M49.844,75.744c-0.128-0.804-0.804-1.454-1.63-1.454c-0.817,0-1.574,0.65-1.692,1.454   H49.844z"
   id="path94"
   style="fill:#ffffff;fill-opacity:0.94117647" />
	<path
   d="M53.038,74.36h0.024c0.46-0.614,1.146-0.946,1.914-0.946c1.632,0,2.661,1.408,2.661,2.945c0,1.584-1.005,2.921-2.672,2.921   c-0.757,0-1.454-0.331-1.903-0.936h-0.024v3.902h-0.946v-8.678h0.946V74.36z M52.99,76.287c0,1.089,0.638,2.117,1.82,2.117   c1.218,0,1.857-0.98,1.857-2.104c0-1.111-0.697-2.01-1.868-2.01C53.698,74.29,52.99,75.248,52.99,76.287z"
   id="path96"
   style="fill:#ffffff;fill-opacity:0.94117647" />
	<path
   d="M64.033,79.125h-0.946v-0.769h-0.024c-0.484,0.614-1.136,0.924-1.914,0.924c-1.633,0-2.662-1.384-2.662-2.921   c0-1.585,1.005-2.945,2.672-2.945c0.756,0,1.443,0.355,1.903,0.946h0.024v-0.791h0.946V79.125z M59.457,76.287   c0,1.089,0.639,2.117,1.821,2.117c1.218,0,1.857-0.98,1.857-2.104c0-1.111-0.698-2.01-1.869-2.01   C60.166,74.29,59.457,75.248,59.457,76.287z"
   id="path98"
   style="fill:#ffffff;fill-opacity:0.94117647" />
	<path
   d="M66.681,74.171h0.024c0.331-0.437,0.615-0.757,1.23-0.757c0.318,0,0.579,0.107,0.85,0.262l-0.449,0.861   c-0.19-0.129-0.319-0.247-0.567-0.247c-1.04,0-1.088,1.336-1.088,2.057v2.778h-0.946v-5.556h0.946V74.171z"
   id="path100"
   style="fill:#ffffff;fill-opacity:0.94117647" />
	<path
   d="M70.974,79.125h-0.946v-4.682h-0.579v-0.874h0.579V71.57h0.946v1.999h0.992v0.874h-0.992V79.125z"
   id="path102"
   style="fill:#ffffff;fill-opacity:0.94117647" />
	<path
   d="M73.764,74.171h0.023c0.296-0.46,0.769-0.757,1.336-0.757c0.651,0,1.242,0.345,1.538,0.923   c0.33-0.616,0.992-0.923,1.666-0.923c1.419,0,1.774,1.16,1.774,2.33v3.381h-0.946v-3.228c0-0.723-0.048-1.607-1.016-1.607   c-1.087,0-1.207,1.051-1.207,1.891v2.944h-0.946V75.97c0-0.688-0.083-1.68-0.992-1.68c-1.112,0-1.23,1.123-1.23,1.962v2.873h-0.946   v-5.556h0.946V74.171z"
   id="path104"
   style="fill:#ffffff;fill-opacity:0.94117647" />
	<path
   d="M82.371,76.549c0.012,1.026,0.745,1.855,1.822,1.855c0.802,0,1.323-0.484,1.689-1.146l0.805,0.461   c-0.532,0.993-1.431,1.562-2.566,1.562c-1.655,0-2.72-1.267-2.72-2.862c0-1.644,0.958-3.004,2.696-3.004   c1.786,0,2.731,1.479,2.637,3.135H82.371z M85.741,75.744c-0.131-0.804-0.805-1.454-1.631-1.454c-0.817,0-1.574,0.65-1.692,1.454   H85.741z"
   id="path106"
   style="fill:#ffffff;fill-opacity:0.94117647" />
	<path
   d="M88.98,74.242h0.024c0.39-0.531,0.898-0.828,1.584-0.828c1.537,0,1.892,1.111,1.892,2.413v3.298h-0.946v-3.132   c0-0.899-0.071-1.703-1.17-1.703c-1.301,0-1.384,1.206-1.384,2.198v2.637h-0.946v-5.556h0.946V74.242z"
   id="path108"
   style="fill:#ffffff;fill-opacity:0.94117647" />
	<path
   d="M95.271,79.125h-0.946v-4.682h-0.58v-0.874h0.58V71.57h0.946v1.999h0.992v0.874h-0.992V79.125z"
   id="path110"
   style="fill:#ffffff;fill-opacity:0.94117647" />
	<path
   d="M100.261,76.359c0-1.633,1.288-2.945,2.919-2.945c1.633,0,2.921,1.312,2.921,2.945c0,1.631-1.301,2.921-2.921,2.921   C101.561,79.28,100.261,77.99,100.261,76.359z M101.206,76.347c0,1.135,0.804,2.058,1.974,2.058c1.171,0,1.975-0.923,1.975-2.058   c0-1.124-0.804-2.057-1.975-2.057C102.01,74.29,101.206,75.223,101.206,76.347z"
   id="path112"
   style="fill:#ffffff;fill-opacity:0.94117647" />
	<path
   d="M108.431,79.125h-0.946v-4.682h-0.521v-0.874h0.521v-2.213c0-0.461,0-1.04,0.249-1.441   c0.308-0.496,0.863-0.697,1.431-0.697c0.224,0,0.448,0.047,0.673,0.118v0.957c-0.214-0.069-0.401-0.129-0.639-0.129   c-0.768,0-0.768,0.543-0.768,1.523v1.882h1.406v0.874h-1.406V79.125z"
   id="path114"
   style="fill:#ffffff;fill-opacity:0.94117647" />
	<path
   d="M121.081,72.161c-0.708-0.732-1.691-1.183-2.718-1.183c-1.988,0-3.596,1.727-3.596,3.688c0,1.965,1.62,3.689,3.617,3.689   c1.005,0,1.988-0.473,2.696-1.182v1.229c-0.768,0.555-1.714,0.876-2.66,0.876c-2.519,0-4.646-2.047-4.646-4.578   c0-2.552,2.093-4.645,4.646-4.645c0.993,0,1.869,0.282,2.66,0.873V72.161z"
   id="path116"
   style="fill:#ffffff;fill-opacity:0.94117647" />
	<path
   d="M122.265,76.359c0-1.633,1.288-2.945,2.919-2.945c1.633,0,2.921,1.312,2.921,2.945c0,1.631-1.301,2.921-2.921,2.921   S122.265,77.99,122.265,76.359z M123.209,76.347c0,1.135,0.805,2.058,1.975,2.058s1.975-0.923,1.975-2.058   c0-1.124-0.805-2.057-1.975-2.057S123.209,75.223,123.209,76.347z"
   id="path118"
   style="fill:#ffffff;fill-opacity:0.94117647" />
	<path
   d="M130.351,74.171h0.023c0.297-0.46,0.77-0.757,1.336-0.757c0.651,0,1.243,0.345,1.537,0.923   c0.332-0.616,0.994-0.923,1.668-0.923c1.419,0,1.773,1.16,1.773,2.33v3.381h-0.945v-3.228c0-0.723-0.048-1.607-1.018-1.607   c-1.089,0-1.206,1.051-1.206,1.891v2.944h-0.946V75.97c0-0.688-0.082-1.68-0.992-1.68c-1.111,0-1.23,1.123-1.23,1.962v2.873h-0.945   v-5.556h0.945V74.171z"
   id="path120"
   style="fill:#ffffff;fill-opacity:0.94117647" />
	<path
   d="M139.432,74.171h0.024c0.294-0.46,0.767-0.757,1.336-0.757c0.649,0,1.24,0.345,1.537,0.923   c0.33-0.616,0.993-0.923,1.666-0.923c1.419,0,1.773,1.16,1.773,2.33v3.381h-0.946v-3.228c0-0.723-0.046-1.607-1.016-1.607   c-1.088,0-1.206,1.051-1.206,1.891v2.944h-0.945V75.97c0-0.688-0.083-1.68-0.994-1.68c-1.112,0-1.229,1.123-1.229,1.962v2.873   h-0.946v-5.556h0.946V74.171z"
   id="path122"
   style="fill:#ffffff;fill-opacity:0.94117647" />
	<path
   d="M148.04,76.549c0.011,1.026,0.744,1.855,1.819,1.855c0.805,0,1.324-0.484,1.692-1.146l0.803,0.461   c-0.533,0.993-1.431,1.562-2.566,1.562c-1.654,0-2.719-1.267-2.719-2.862c0-1.644,0.958-3.004,2.697-3.004   c1.785,0,2.729,1.479,2.636,3.135H148.04z M151.408,75.744c-0.13-0.804-0.803-1.454-1.632-1.454c-0.814,0-1.57,0.65-1.69,1.454   H151.408z"
   id="path124"
   style="fill:#ffffff;fill-opacity:0.94117647" />
	<path
   d="M154.602,74.171h0.023c0.331-0.437,0.615-0.757,1.229-0.757c0.319,0,0.579,0.107,0.851,0.262l-0.448,0.861   c-0.19-0.129-0.319-0.247-0.568-0.247c-1.039,0-1.087,1.336-1.087,2.057v2.778h-0.946v-5.556h0.946V74.171z"
   id="path126"
   style="fill:#ffffff;fill-opacity:0.94117647" />
	<path
   d="M161.79,75.223h-0.023c-0.438-0.556-0.981-0.933-1.727-0.933c-1.146,0-1.962,0.946-1.962,2.057   c0,1.101,0.756,2.058,1.914,2.058c0.793,0,1.35-0.355,1.81-0.957h0.023v1.265c-0.544,0.365-1.101,0.568-1.762,0.568   c-1.678,0-2.956-1.254-2.956-2.934c0-1.655,1.337-2.933,2.968-2.933c0.604,0,1.219,0.201,1.715,0.556V75.223z"
   id="path128"
   style="fill:#ffffff;fill-opacity:0.94117647" />
	<path
   d="M163.764,76.549c0.013,1.026,0.745,1.855,1.822,1.855c0.805,0,1.323-0.484,1.689-1.146l0.804,0.461   c-0.531,0.993-1.43,1.562-2.564,1.562c-1.655,0-2.719-1.267-2.719-2.862c0-1.644,0.956-3.004,2.694-3.004   c1.785,0,2.731,1.479,2.637,3.135H163.764z M167.134,75.744c-0.129-0.804-0.804-1.454-1.631-1.454c-0.817,0-1.573,0.65-1.691,1.454   H167.134z"
   id="path130"
   style="fill:#ffffff;fill-opacity:0.94117647" />
</g>
<g
   id="g140"
   style="fill:#ffffff;fill-opacity:0.94117647">
	<g
   id="g138"
   style="fill:#ffffff;fill-opacity:0.94117647">
		<path
   d="M50.841,34.723h-5.207V14.62c0,0.023,0-3.793,3.81-5.064c3.436-1.103,5.733,1.118,5.737,1.111l17.164,18.561    c0.862,0.532,1.212-0.022,1.204-0.532V9.556h5.254v19.96c-0.023,1.699-1.429,3.808-3.421,4.63    c-2.043,0.793-4.286,0.787-6.942-1.448L52.384,15.248c-0.422-0.456-1.525-0.505-1.543,0.385V34.723L50.841,34.723z"
   id="path134"
   style="fill:#ffffff;fill-opacity:0.94117647" />
		<path
   d="M82.179,9.556h5.254V27.59c-0.016,1.919,1.589,1.919,3.182,1.927h23.333c0.973-0.008,2.08-1.155,2.073-2.312    c0.007-1.202-1.119-2.417-2.17-2.411H98.666c-2.612,0.095-8.035-2.316-8.05-7.427c0.016-6.237,5.139-7.645,7.474-7.81h42.955    v5.304h-10.754v19.863h-5.204V14.86H98.762c-2.507-0.217-4.312,4.102-0.192,4.727h16.15c2.428-0.022,6.443,2.089,6.459,7.328    c-0.016,5.305-3.127,7.817-6.459,7.809H90.856c-3.942,0.008-5.355-0.889-6.75-2.217c-1.293-1.277-1.51-1.994-1.927-4.628V9.556    L82.179,9.556z"
   id="path136"
   style="fill:#ffffff;fill-opacity:0.94117647" />
	</g>
</g>
</svg>