<?xml version="1.0" encoding="utf-8"?>
<!-- Generator: Adobe Illustrator 16.0.0, SVG Export Plug-In . SVG Version: 6.00 Build 0)  -->
<!DOCTYPE svg PUBLIC "-//W3C//DTD SVG 1.1//EN" "http://www.w3.org/Graphics/SVG/1.1/DTD/svg11.dtd">
<svg version="1.1" id="Layer_1" xmlns="http://www.w3.org/2000/svg" xmlns:xlink="http://www.w3.org/1999/xlink" x="0px" y="0px"
	 width="360px" height="504px" viewBox="0 0 360 504" enable-background="new 0 0 360 504" xml:space="preserve">
<path d="M25.321,299.262H6.479v-72.747c0,0.083,0-13.727,13.786-18.326c12.433-3.99,20.748,4.045,20.76,4.022l62.112,67.167
	c3.118,1.926,4.387-0.08,4.357-1.925v-69.264h19.015v72.233c-0.083,6.149-5.171,13.781-12.382,16.755
	c-7.395,2.868-15.509,2.847-25.123-5.239l-58.101-63.151c-1.526-1.648-5.52-1.827-5.583,1.395V299.262z"/>
<path d="M138.727,208.189h19.015v65.26c-0.059,6.944,5.75,6.944,11.516,6.973h84.438c3.521-0.028,7.527-4.179,7.502-8.369
	c0.025-4.35-4.051-8.744-7.85-8.725h-54.959c-9.453,0.345-29.076-8.381-29.132-26.876c0.056-22.57,18.598-27.664,27.046-28.263
	H351.75v19.193h-38.916v71.88h-18.833v-71.88h-95.266c-9.071-0.784-15.605,14.844-0.696,17.104h58.445
	c8.784-0.081,23.316,7.562,23.375,26.518c-0.059,19.198-11.317,28.287-23.375,28.258h-86.356
	c-14.266,0.029-19.379-3.216-24.427-8.021c-4.68-4.623-5.464-7.217-6.974-16.75V208.189z"/>
</svg>
